<?xml version="1.0" encoding="iso-8859-1"?>
<!-- Uploaded to: SVG Repo, www.svgrepo.com, Generator: SVG Repo Mixer Tools -->
<svg fill="#5c48f1" version="1.1" id="Layer_1" xmlns="http://www.w3.org/2000/svg" xmlns:xlink="http://www.w3.org/1999/xlink" 
	 viewBox="0 0 496 496" xml:space="preserve">
<g>
	<g>
		<g>
			<path d="M496,248c0-22.056-17.944-40-40-40h-48h-30.152c-2.504-8.16-5.768-16.04-9.736-23.544l21.304-21.312l-56.568-56.568
				l-21.304,21.312c-7.504-3.976-15.392-7.24-23.544-9.744V88h-80v30.144c-8.16,2.504-16.04,5.768-23.544,9.744l-21.304-21.312
				l-56.568,56.568l21.304,21.312c-3.968,7.48-7.008,15.416-9.512,23.544H53.192l-50,40l50,40h65.184
				c2.504,8.128,5.544,16.064,9.504,23.544l-21.304,21.304l56.568,56.568l21.304-21.304c7.504,3.968,15.392,7.224,23.544,9.736V408
				h80v-30.152c8.16-2.504,16.04-5.768,23.544-9.736l21.304,21.304l56.568-56.568l-21.304-21.304
				c3.968-7.504,7.224-15.392,9.736-23.544H408h48C478.056,288,496,270.056,496,248z M72,224h243.8
				c1.816,5.104,3.112,10.448,3.728,16H72V224z M188.312,208c13.216-19.72,35.432-32,59.688-32c24.912,0,46.896,12.72,59.824,32
				H188.312z M56,269.752L28.808,248L56,226.24V269.752z M72,272v-16h247.528c-0.616,5.56-1.912,10.896-3.728,16H72z M307.824,288
				c-12.936,19.28-34.92,32-59.824,32c-24.256,0-46.464-12.288-59.688-32H307.824z M392,272h-24h-2.392l-1.544,6
				c-2.816,10.88-7.112,21.256-12.776,30.848l-3.152,5.344l18.656,18.656l-33.944,33.944l-18.656-18.656l-5.344,3.152
				c-9.592,5.664-19.968,9.96-30.848,12.776l-6,1.544V392h-48v-26.392l-6-1.544c-10.88-2.816-21.256-7.112-30.848-12.776
				l-5.344-3.152l-18.656,18.656l-33.944-33.944l18.656-18.656l-3.152-5.344c-3.896-6.6-7.096-13.6-9.664-20.848h34.64
				c14.976,29.312,45.136,48,78.312,48c48.52,0,88-39.48,88-88c0-48.52-39.48-88-88-88c-33.176,0-63.344,18.688-78.312,48h-34.632
				c2.56-7.256,5.76-14.248,9.664-20.856l3.152-5.336l-18.656-18.656l33.944-33.944l18.656,18.664l5.344-3.16
				c9.6-5.664,19.976-9.968,30.848-12.768l5.992-1.552V104h48v26.392l6,1.544c10.872,2.808,21.248,7.104,30.848,12.768l5.344,3.16
				l18.656-18.664l33.944,33.944L348.136,181.8l3.152,5.336c5.664,9.6,9.96,19.976,12.768,30.856l1.552,6.008H368h24V272z M424,272
				h-16v-48h16V272z M456,272h-16v-48h16c13.232,0,24,10.768,24,24S469.232,272,456,272z"/>
			<rect x="472" y="304" width="16" height="16"/>
			<rect x="440" y="304" width="16" height="16"/>
			<rect x="408" y="304" width="16" height="16"/>
			<rect x="64" y="176" width="16" height="16"/>
			<rect x="32" y="176" width="16" height="16"/>
			<rect y="176" width="16" height="16"/>
		</g>
	</g>
</g>
</svg>